<?xml version="1.0" standalone="no"?>
<!DOCTYPE svg PUBLIC "-//W3C//DTD SVG 20010904//EN"
 "http://www.w3.org/TR/2001/REC-SVG-20010904/DTD/svg10.dtd">
<svg version="1.0" xmlns="http://www.w3.org/2000/svg"
 width="512.000000pt" height="512.000000pt" viewBox="0 0 512.000000 512.000000"
 preserveAspectRatio="xMidYMid meet">

<g transform="translate(0.000000,512.000000) scale(0.100000,-0.100000)"
fill="#000000" stroke="none">
<path d="M949 5102 c-102 -34 -175 -97 -227 -196 -25 -46 -27 -61 -27 -161 0
-101 2 -114 27 -162 36 -68 78 -114 136 -151 188 -120 437 -52 534 146 31 63
33 73 33 172 0 101 -1 108 -34 168 -66 122 -176 191 -316 198 -50 3 -86 -1
-126 -14z"/>
<path d="M3834 5105 c-207 -45 -389 -228 -434 -436 l-13 -56 -54 -17 c-101
-32 -205 -144 -234 -251 -6 -22 -9 -78 -7 -125 4 -67 10 -96 31 -137 35 -68
76 -114 135 -151 83 -53 134 -62 354 -62 l198 0 0 -225 0 -225 -325 0 -325 0
0 -150 0 -150 815 0 c798 0 817 0 855 20 45 23 80 80 80 130 0 50 -35 107 -80
130 -37 19 -58 20 -380 20 l-340 0 0 224 0 225 218 3 c251 4 288 13 379 93 76
67 117 154 122 262 3 93 -12 152 -59 226 -38 60 -118 122 -184 143 l-53 17
-13 56 c-46 211 -227 392 -437 436 -83 18 -168 18 -249 0z"/>
<path d="M625 4198 c-5 -13 -10 -193 -12 -400 l-4 -378 -140 0 c-120 0 -145
-3 -179 -20 -45 -23 -80 -80 -80 -130 0 -50 35 -107 80 -130 38 -20 57 -20
855 -20 l815 0 0 150 0 150 -225 0 -225 0 -1 353 c-1 229 -5 368 -12 399 l-12
47 -60 -40 c-230 -152 -536 -141 -771 27 -20 14 -22 13 -29 -8z"/>
<path d="M2465 3903 c-65 -24 -110 -56 -146 -106 -55 -76 -59 -109 -59 -469
l0 -328 300 0 301 0 -3 348 c-3 328 -4 349 -24 393 -65 140 -229 212 -369 162z"/>
<path d="M88 2679 c-24 -12 -46 -35 -59 -62 -20 -39 -21 -51 -16 -172 14 -278
61 -518 148 -760 l31 -85 503 0 c333 0 522 4 557 11 124 26 240 112 297 219
42 79 50 106 61 217 15 158 76 255 198 315 l66 33 216 5 c243 6 259 10 298 78
12 22 22 54 22 71 0 51 -35 108 -80 131 -39 20 -56 20 -1122 20 -1059 -1
-1084 -1 -1120 -21z"/>
<path d="M2694 2668 c35 -165 -3 -314 -110 -428 -52 -55 -155 -113 -232 -129
-29 -6 -133 -11 -232 -11 -141 0 -182 -3 -193 -14 -8 -8 -17 -46 -20 -91 -16
-185 -82 -331 -210 -464 -108 -111 -240 -184 -389 -215 -64 -13 -154 -16 -523
-16 -245 0 -445 -2 -445 -5 0 -3 23 -42 51 -88 199 -318 508 -627 829 -827
223 -140 558 -273 812 -324 208 -42 295 -50 518 -51 293 0 508 30 757 106
l103 32 0 136 c0 115 -4 143 -21 181 -27 60 -54 88 -114 116 -42 20 -66 24
-152 24 -56 0 -126 5 -155 11 -126 27 -249 121 -306 235 -122 241 -14 526 236
625 55 23 71 24 447 29 384 5 391 6 438 29 57 28 131 108 148 159 46 141 168
283 299 345 41 19 100 40 130 46 30 5 202 13 382 17 l327 7 6 26 c12 58 26
193 32 316 5 121 4 133 -16 172 -14 29 -34 49 -61 63 -39 20 -56 20 -1191 20
l-1151 0 6 -32z"/>
<path d="M4565 1791 c-162 -6 -172 -7 -217 -33 -62 -37 -101 -86 -137 -175
-71 -174 -190 -288 -368 -350 l-78 -28 -382 -5 c-366 -5 -383 -6 -410 -26 -61
-45 -79 -127 -42 -194 35 -62 79 -80 200 -80 187 0 319 -51 427 -164 100 -104
152 -234 152 -383 0 -40 2 -73 5 -73 12 0 113 55 189 103 323 200 636 516 832
837 101 166 254 507 254 566 0 15 -79 16 -425 5z"/>
</g>
</svg>
